<svg width="56" height="56" viewBox="0 0 56 56" fill="none" xmlns="http://www.w3.org/2000/svg">
<path d="M49 23.333C49 39.6663 28 53.6663 28 53.6663C28 53.6663 7 39.6663 7 23.333C7 17.7635 9.21249 12.422 13.1508 8.48376C17.089 4.5455 22.4305 2.33301 28 2.33301C33.5695 2.33301 38.911 4.5455 42.8492 8.48376C46.7875 12.422 49 17.7635 49 23.333Z" stroke="#BCB9B4" stroke-width="3.83333" stroke-linecap="round" stroke-linejoin="round"/>
<path d="M28 16.333C26.1435 16.333 24.363 17.0705 23.0503 18.3833C21.7375 19.696 21 21.4765 21 23.333C21 25.1895 21.7375 26.97 23.0503 28.2828C24.363 29.5955 26.1435 30.333 28 30.333C29.8565 30.333 31.637 29.5955 32.9497 28.2828C34.2625 26.97 35 25.1895 35 23.333C35 21.4765 34.2625 19.696 32.9497 18.3833C31.637 17.0705 29.8565 16.333 28 16.333Z" stroke="#BCB9B4" stroke-width="3.83333" stroke-linecap="round" stroke-linejoin="round"/>
</svg>
